<?xml version="1.0" standalone="no"?>
<!DOCTYPE svg PUBLIC "-//W3C//DTD SVG 20010904//EN"
 "http://www.w3.org/TR/2001/REC-SVG-20010904/DTD/svg10.dtd">
<svg version="1.0" xmlns="http://www.w3.org/2000/svg"
 width="256.000000pt" height="256.000000pt" viewBox="0 0 256.000000 256.000000"
 preserveAspectRatio="xMidYMid meet">
<metadata>
Created by potrace 1.16, written by Peter Selinger 2001-2019
</metadata>
<g transform="translate(0.000000,256.000000) scale(0.100000,-0.100000)"
fill="#000000" stroke="none">
<path d="M447 1751 c-34 -35 -56 -61 -49 -57 7 5 12 1 12 -9 0 -10 -5 -14 -12
-9 -7 4 18 -25 57 -65 38 -39 72 -71 76 -71 4 0 -21 28 -55 63 -54 54 -55 56
-6 10 42 -40 63 -53 86 -53 44 0 65 -20 71 -69 5 -36 3 -43 -8 -36 -8 4 14
-21 48 -56 50 -51 69 -64 95 -66 26 -1 29 0 13 7 -11 5 -14 9 -7 9 17 1 55
-18 64 -33 15 -22 8 -76 -12 -96 -44 -44 -120 -7 -120 59 0 33 -7 45 -45 80
-25 23 -45 45 -45 48 0 4 24 -15 53 -42 l52 -50 -54 57 c-78 82 -82 77 -80
-106 0 -83 5 -156 11 -163 5 -6 13 -24 18 -40 6 -21 8 -23 9 -8 1 11 -6 32
-15 45 l-16 25 21 -24 c43 -49 12 -115 -54 -115 -69 0 -99 71 -50 120 24 24
25 29 25 166 0 135 -1 141 -25 170 -14 16 -25 39 -24 51 1 20 2 20 9 -3 7 -21
8 -19 6 13 -2 31 -13 49 -62 98 -32 32 -63 59 -69 59 -6 0 -84 -74 -175 -165
-128 -128 -164 -170 -162 -188 2 -18 1 -19 -7 -7 -6 8 -11 10 -11 5 0 -6 4
-15 9 -20 5 -6 12 -21 16 -34 5 -18 4 -22 -6 -16 -8 4 98 -105 236 -244 137
-138 252 -251 255 -251 3 0 -105 111 -240 247 l-245 248 247 -244 c259 -256
252 -251 312 -226 14 6 17 5 12 -3 -4 -7 -6 -12 -4 -12 2 0 111 109 243 241
132 133 234 238 226 234 -9 -5 -12 -3 -9 6 3 8 10 13 16 12 6 -1 7 11 1 34 -6
31 -52 81 -256 285 -137 136 -246 248 -243 248 2 0 119 -114 259 -252 140
-139 245 -239 233 -223 -11 17 -123 132 -249 256 -226 223 -228 225 -271 225
-39 -1 -47 -6 -105 -65z"/>
<path d="M1942 1809 c5 -3 2 -9 -7 -13 -24 -9 -27 -8 -19 7 4 6 -3 2 -16 -10
-17 -16 -23 -34 -24 -72 -1 -31 1 -46 7 -38 6 8 7 4 4 -10 -7 -34 43 -73 93
-73 50 0 100 39 93 73 -3 13 -1 17 4 10 5 -6 8 6 8 32 0 24 -3 39 -6 33 -3 -5
-9 -2 -13 7 -9 24 -8 27 7 19 6 -4 3 2 -7 14 -21 24 -32 29 -20 10 5 -8 2 -9
-10 -5 -10 4 -21 7 -24 7 -4 0 -2 4 5 8 6 4 -11 7 -37 7 -26 0 -44 -3 -38 -6z"/>
<path d="M2242 1658 c-14 -62 -33 -85 -84 -100 -37 -11 -38 -12 -38 -60 l0
-48 40 0 40 0 0 -167 c0 -190 9 -221 75 -249 44 -18 129 -18 191 1 58 18 64
18 44 4 -12 -8 -12 -10 -1 -7 20 6 23 35 10 85 -11 40 -14 42 -38 36 -46 -12
-101 -8 -111 7 -5 8 -10 77 -10 153 l0 137 75 0 75 0 0 55 0 55 -75 0 -75 0 0
75 0 75 -53 0 -52 0 -13 -52z"/>
<path d="M1599 1556 c-2 -2 -53 -6 -112 -8 -70 -3 -112 -9 -120 -18 -10 -10
-8 -10 10 -1 36 19 40 12 5 -9 -38 -23 -46 -25 -36 -7 4 6 -3 3 -15 -8 -13
-11 -27 -29 -33 -40 -7 -14 -3 -13 11 5 24 30 28 20 5 -15 -33 -51 -36 -121
-8 -189 5 -15 4 -17 -6 -11 -9 5 -11 4 -6 -4 4 -6 11 -9 15 -6 5 2 19 -7 31
-20 l24 -25 -38 -39 c-26 -27 -41 -53 -46 -81 -4 -22 -5 -38 -2 -35 3 3 13 -2
23 -11 16 -15 16 -17 -7 -51 -32 -48 -31 -93 4 -134 15 -18 26 -35 25 -38 -1
-3 1 -8 4 -11 4 -3 3 1 -1 8 -9 15 -1 15 24 2 40 -21 167 -31 242 -19 40 6 83
12 95 13 11 0 19 5 15 10 -3 5 3 6 13 2 13 -5 28 5 56 34 22 23 39 46 39 53 0
6 -11 -5 -25 -25 -14 -21 -35 -42 -48 -48 l-22 -11 23 18 c44 36 62 75 62 135
0 46 -5 62 -25 87 -14 16 -40 34 -58 40 -29 10 -198 30 -255 31 -18 0 -21 3
-14 16 7 13 27 17 88 18 149 3 223 74 228 218 0 29 5 38 21 41 12 3 6 5 -13 6
-30 1 -32 -1 -22 -20 6 -11 10 -24 8 -28 -2 -5 -10 7 -19 25 l-16 34 43 0 44
0 0 50 0 49 -107 4 -108 3 110 0 110 -1 5 -50 6 -50 8 38 c7 30 5 42 -9 57
-16 17 -31 20 -120 20 -56 0 -104 -2 -106 -4z m-26 -127 c30 -16 37 -28 37
-71 0 -47 -36 -78 -91 -78 -50 0 -79 27 -79 75 0 67 71 106 133 74z m59 -465
c14 -9 9 -41 -9 -55 -11 -10 -44 -14 -104 -14 -102 0 -127 13 -115 60 l7 28
107 -7 c59 -4 110 -10 114 -12z"/>
<path d="M1857 1544 c-4 -4 -7 -25 -7 -46 0 -34 4 -40 30 -49 l30 -11 0 -159
0 -158 -35 -7 c-34 -6 -35 -8 -35 -50 l0 -44 150 0 150 0 0 45 c0 43 -1 44
-37 51 -31 6 -34 8 -18 15 11 4 14 8 8 8 -9 1 -13 52 -15 204 l-3 202 -106 3
c-58 1 -108 -1 -112 -4z"/>
</g>
</svg>
