<svg xmlns="http://www.w3.org/2000/svg" xmlns:xlink="http://www.w3.org/1999/xlink" width="500" zoomAndPan="magnify" viewBox="0 0 375 374.999991" height="500" preserveAspectRatio="xMidYMid meet" version="1.0"><defs><g/></defs><g fill="#ffffff" fill-opacity="1"><g transform="translate(157.817235, 233.256909)"><g><path d="M 12.90625 0.6875 C 11.144531 0.6875 9.5 0.414062 7.96875 -0.125 C 6.4375 -0.664062 4.742188 -1.546875 2.890625 -2.765625 C 2.847656 -2.804688 2.785156 -2.828125 2.703125 -2.828125 C 2.535156 -2.828125 2.335938 -2.734375 2.109375 -2.546875 C 1.878906 -2.359375 1.703125 -2.179688 1.578125 -2.015625 L 0.625 -2.703125 L 6.546875 -11.390625 L 7.546875 -10.703125 C 7.296875 -10.367188 7.171875 -9.988281 7.171875 -9.5625 C 7.171875 -9.351562 7.234375 -9.1875 7.359375 -9.0625 C 8.328125 -8.351562 9.125 -7.890625 9.75 -7.671875 C 10.382812 -7.460938 11.203125 -7.359375 12.203125 -7.359375 C 13.460938 -7.359375 14.566406 -7.90625 15.515625 -9 C 16.460938 -10.09375 16.9375 -11.601562 16.9375 -13.53125 L 16.9375 -45.3125 C 16.9375 -45.519531 16.765625 -45.6875 16.421875 -45.8125 C 16.085938 -45.9375 15.773438 -46 15.484375 -46 L 15.484375 -47.203125 L 26.625 -47.203125 L 26.625 -46 C 26.332031 -46 26.015625 -45.9375 25.671875 -45.8125 C 25.335938 -45.6875 25.171875 -45.519531 25.171875 -45.3125 L 25.171875 -13.28125 C 25.171875 -8.789062 24.085938 -5.335938 21.921875 -2.921875 C 19.765625 -0.515625 16.757812 0.6875 12.90625 0.6875 Z M 12.90625 0.6875 "/></g></g></g><g fill="#ffffff" fill-opacity="1"><g transform="translate(187.582599, 233.256909)"><g><path d="M 31.21875 -1.890625 C 31.21875 -1.679688 31.375 -1.515625 31.6875 -1.390625 C 32 -1.265625 32.304688 -1.203125 32.609375 -1.203125 L 32.609375 0 L 24.796875 0 L 24.796875 -2.328125 C 22.578125 -0.398438 20 0.5625 17.0625 0.5625 C 12.65625 0.5625 9.421875 -0.703125 7.359375 -3.234375 C 5.304688 -5.773438 4.28125 -8.957031 4.28125 -12.78125 L 4.28125 -27.0625 C 4.28125 -27.269531 4.117188 -27.4375 3.796875 -27.5625 C 3.484375 -27.6875 3.179688 -27.75 2.890625 -27.75 L 2.890625 -28.953125 L 13.59375 -28.953125 L 13.59375 -27.75 C 13.300781 -27.75 12.992188 -27.6875 12.671875 -27.5625 C 12.359375 -27.4375 12.203125 -27.269531 12.203125 -27.0625 L 12.203125 -13.28125 C 12.203125 -11.476562 12.664062 -9.957031 13.59375 -8.71875 C 14.519531 -7.476562 15.945312 -6.859375 17.875 -6.859375 C 19.71875 -6.859375 21.097656 -7.425781 22.015625 -8.5625 C 22.941406 -9.695312 23.40625 -11.144531 23.40625 -12.90625 L 23.40625 -27.0625 C 23.40625 -27.269531 23.25 -27.4375 22.9375 -27.5625 C 22.625 -27.6875 22.320312 -27.75 22.03125 -27.75 L 22.03125 -28.953125 L 32.609375 -28.953125 L 32.609375 -27.75 C 32.304688 -27.75 32 -27.6875 31.6875 -27.5625 C 31.375 -27.4375 31.21875 -27.269531 31.21875 -27.0625 Z M 31.21875 -1.890625 "/></g></g></g><g fill="#ffffff" fill-opacity="1"><g transform="translate(234.813105, 216.939903)"><g><path d="M 0.6875 -12.90625 C 0.6875 -11.144531 0.414062 -9.5 -0.125 -7.96875 C -0.664062 -6.4375 -1.546875 -4.742188 -2.765625 -2.890625 C -2.804688 -2.847656 -2.828125 -2.785156 -2.828125 -2.703125 C -2.828125 -2.535156 -2.734375 -2.335938 -2.546875 -2.109375 C -2.359375 -1.878906 -2.179688 -1.703125 -2.015625 -1.578125 L -2.703125 -0.625 L -11.390625 -6.546875 L -10.703125 -7.546875 C -10.367188 -7.296875 -9.988281 -7.171875 -9.5625 -7.171875 C -9.351562 -7.171875 -9.1875 -7.234375 -9.0625 -7.359375 C -8.351562 -8.328125 -7.890625 -9.125 -7.671875 -9.75 C -7.460938 -10.382812 -7.359375 -11.203125 -7.359375 -12.203125 C -7.359375 -13.460938 -7.90625 -14.566406 -9 -15.515625 C -10.09375 -16.460938 -11.601562 -16.9375 -13.53125 -16.9375 L -45.3125 -16.9375 C -45.519531 -16.9375 -45.6875 -16.765625 -45.8125 -16.421875 C -45.9375 -16.085938 -46 -15.773438 -46 -15.484375 L -47.203125 -15.484375 L -47.203125 -26.625 L -46 -26.625 C -46 -26.332031 -45.9375 -26.015625 -45.8125 -25.671875 C -45.6875 -25.335938 -45.519531 -25.171875 -45.3125 -25.171875 L -13.28125 -25.171875 C -8.789062 -25.171875 -5.335938 -24.085938 -2.921875 -21.921875 C -0.515625 -19.765625 0.6875 -16.757812 0.6875 -12.90625 Z M 0.6875 -12.90625 "/></g></g></g><g fill="#ffffff" fill-opacity="1"><g transform="translate(234.813105, 187.17454)"><g><path d="M -1.890625 -31.21875 C -1.679688 -31.21875 -1.515625 -31.375 -1.390625 -31.6875 C -1.265625 -32 -1.203125 -32.304688 -1.203125 -32.609375 L 0 -32.609375 L 0 -24.796875 L -2.328125 -24.796875 C -0.398438 -22.578125 0.5625 -20 0.5625 -17.0625 C 0.5625 -12.65625 -0.703125 -9.421875 -3.234375 -7.359375 C -5.773438 -5.304688 -8.957031 -4.28125 -12.78125 -4.28125 L -27.0625 -4.28125 C -27.269531 -4.28125 -27.4375 -4.117188 -27.5625 -3.796875 C -27.6875 -3.484375 -27.75 -3.179688 -27.75 -2.890625 L -28.953125 -2.890625 L -28.953125 -13.59375 L -27.75 -13.59375 C -27.75 -13.300781 -27.6875 -12.992188 -27.5625 -12.671875 C -27.4375 -12.359375 -27.269531 -12.203125 -27.0625 -12.203125 L -13.28125 -12.203125 C -11.476562 -12.203125 -9.957031 -12.664062 -8.71875 -13.59375 C -7.476562 -14.519531 -6.859375 -15.945312 -6.859375 -17.875 C -6.859375 -19.71875 -7.425781 -21.097656 -8.5625 -22.015625 C -9.695312 -22.941406 -11.144531 -23.40625 -12.90625 -23.40625 L -27.0625 -23.40625 C -27.269531 -23.40625 -27.4375 -23.25 -27.5625 -22.9375 C -27.6875 -22.625 -27.75 -22.320312 -27.75 -22.03125 L -28.953125 -22.03125 L -28.953125 -32.609375 L -27.75 -32.609375 C -27.75 -32.304688 -27.6875 -32 -27.5625 -31.6875 C -27.4375 -31.375 -27.269531 -31.21875 -27.0625 -31.21875 Z M -1.890625 -31.21875 "/></g></g></g><g fill="#ffffff" fill-opacity="1"><g transform="translate(216.797612, 141.700029)"><g><path d="M -12.90625 -0.6875 C -11.144531 -0.6875 -9.5 -0.414062 -7.96875 0.125 C -6.4375 0.664062 -4.742188 1.546875 -2.890625 2.765625 C -2.847656 2.804688 -2.785156 2.828125 -2.703125 2.828125 C -2.535156 2.828125 -2.335938 2.734375 -2.109375 2.546875 C -1.878906 2.359375 -1.703125 2.179688 -1.578125 2.015625 L -0.625 2.703125 L -6.546875 11.390625 L -7.546875 10.703125 C -7.296875 10.367188 -7.171875 9.988281 -7.171875 9.5625 C -7.171875 9.351562 -7.234375 9.1875 -7.359375 9.0625 C -8.328125 8.351562 -9.125 7.890625 -9.75 7.671875 C -10.382812 7.460938 -11.203125 7.359375 -12.203125 7.359375 C -13.460938 7.359375 -14.566406 7.90625 -15.515625 9 C -16.460938 10.09375 -16.9375 11.601562 -16.9375 13.53125 L -16.9375 45.3125 C -16.9375 45.519531 -16.765625 45.6875 -16.421875 45.8125 C -16.085938 45.9375 -15.773438 46 -15.484375 46 L -15.484375 47.203125 L -26.625 47.203125 L -26.625 46 C -26.332031 46 -26.015625 45.9375 -25.671875 45.8125 C -25.335938 45.6875 -25.171875 45.519531 -25.171875 45.3125 L -25.171875 13.28125 C -25.171875 8.789062 -24.085938 5.335938 -21.921875 2.921875 C -19.765625 0.515625 -16.757812 -0.6875 -12.90625 -0.6875 Z M -12.90625 -0.6875 "/></g></g></g><g fill="#ffffff" fill-opacity="1"><g transform="translate(187.032248, 141.700029)"><g><path d="M -31.21875 1.890625 C -31.21875 1.679688 -31.375 1.515625 -31.6875 1.390625 C -32 1.265625 -32.304688 1.203125 -32.609375 1.203125 L -32.609375 0 L -24.796875 0 L -24.796875 2.328125 C -22.578125 0.398438 -20 -0.5625 -17.0625 -0.5625 C -12.65625 -0.5625 -9.421875 0.703125 -7.359375 3.234375 C -5.304688 5.773438 -4.28125 8.957031 -4.28125 12.78125 L -4.28125 27.0625 C -4.28125 27.269531 -4.117188 27.4375 -3.796875 27.5625 C -3.484375 27.6875 -3.179688 27.75 -2.890625 27.75 L -2.890625 28.953125 L -13.59375 28.953125 L -13.59375 27.75 C -13.300781 27.75 -12.992188 27.6875 -12.671875 27.5625 C -12.359375 27.4375 -12.203125 27.269531 -12.203125 27.0625 L -12.203125 13.28125 C -12.203125 11.476562 -12.664062 9.957031 -13.59375 8.71875 C -14.519531 7.476562 -15.945312 6.859375 -17.875 6.859375 C -19.71875 6.859375 -21.097656 7.425781 -22.015625 8.5625 C -22.941406 9.695312 -23.40625 11.144531 -23.40625 12.90625 L -23.40625 27.0625 C -23.40625 27.269531 -23.25 27.4375 -22.9375 27.5625 C -22.625 27.6875 -22.320312 27.75 -22.03125 27.75 L -22.03125 28.953125 L -32.609375 28.953125 L -32.609375 27.75 C -32.304688 27.75 -32 27.6875 -31.6875 27.5625 C -31.375 27.4375 -31.21875 27.269531 -31.21875 27.0625 Z M -31.21875 1.890625 "/></g></g></g><g fill="#ffffff" fill-opacity="1"><g transform="translate(140.173711, 158.846754)"><g><path d="M -0.6875 12.90625 C -0.6875 11.144531 -0.414062 9.5 0.125 7.96875 C 0.664062 6.4375 1.546875 4.742188 2.765625 2.890625 C 2.804688 2.847656 2.828125 2.785156 2.828125 2.703125 C 2.828125 2.535156 2.734375 2.335938 2.546875 2.109375 C 2.359375 1.878906 2.179688 1.703125 2.015625 1.578125 L 2.703125 0.625 L 11.390625 6.546875 L 10.703125 7.546875 C 10.367188 7.296875 9.988281 7.171875 9.5625 7.171875 C 9.351562 7.171875 9.1875 7.234375 9.0625 7.359375 C 8.351562 8.328125 7.890625 9.125 7.671875 9.75 C 7.460938 10.382812 7.359375 11.203125 7.359375 12.203125 C 7.359375 13.460938 7.90625 14.566406 9 15.515625 C 10.09375 16.460938 11.601562 16.9375 13.53125 16.9375 L 45.3125 16.9375 C 45.519531 16.9375 45.6875 16.765625 45.8125 16.421875 C 45.9375 16.085938 46 15.773438 46 15.484375 L 47.203125 15.484375 L 47.203125 26.625 L 46 26.625 C 46 26.332031 45.9375 26.015625 45.8125 25.671875 C 45.6875 25.335938 45.519531 25.171875 45.3125 25.171875 L 13.28125 25.171875 C 8.789062 25.171875 5.335938 24.085938 2.921875 21.921875 C 0.515625 19.765625 -0.6875 16.757812 -0.6875 12.90625 Z M -0.6875 12.90625 "/></g></g></g><g fill="#ffffff" fill-opacity="1"><g transform="translate(140.173711, 188.612117)"><g><path d="M 1.890625 31.21875 C 1.679688 31.21875 1.515625 31.375 1.390625 31.6875 C 1.265625 32 1.203125 32.304688 1.203125 32.609375 L 0 32.609375 L 0 24.796875 L 2.328125 24.796875 C 0.398438 22.578125 -0.5625 20 -0.5625 17.0625 C -0.5625 12.65625 0.703125 9.421875 3.234375 7.359375 C 5.773438 5.304688 8.957031 4.28125 12.78125 4.28125 L 27.0625 4.28125 C 27.269531 4.28125 27.4375 4.117188 27.5625 3.796875 C 27.6875 3.484375 27.75 3.179688 27.75 2.890625 L 28.953125 2.890625 L 28.953125 13.59375 L 27.75 13.59375 C 27.75 13.300781 27.6875 12.992188 27.5625 12.671875 C 27.4375 12.359375 27.269531 12.203125 27.0625 12.203125 L 13.28125 12.203125 C 11.476562 12.203125 9.957031 12.664062 8.71875 13.59375 C 7.476562 14.519531 6.859375 15.945312 6.859375 17.875 C 6.859375 19.71875 7.425781 21.097656 8.5625 22.015625 C 9.695312 22.941406 11.144531 23.40625 12.90625 23.40625 L 27.0625 23.40625 C 27.269531 23.40625 27.4375 23.25 27.5625 22.9375 C 27.6875 22.625 27.75 22.320312 27.75 22.03125 L 28.953125 22.03125 L 28.953125 32.609375 L 27.75 32.609375 C 27.75 32.304688 27.6875 32 27.5625 31.6875 C 27.4375 31.375 27.269531 31.21875 27.0625 31.21875 Z M 1.890625 31.21875 "/></g></g></g></svg>