<svg xmlns="http://www.w3.org/2000/svg" xmlns:xlink="http://www.w3.org/1999/xlink" width="500" zoomAndPan="magnify" viewBox="0 0 375 374.999991" height="500" preserveAspectRatio="xMidYMid meet" version="1.0"><defs><g/></defs><g fill="#000000" fill-opacity="1"><g transform="translate(93.567206, 332.300341)"><g><path d="M 40.828125 2.1875 C 35.253906 2.1875 30.039062 1.328125 25.1875 -0.390625 C 20.34375 -2.117188 15 -4.910156 9.15625 -8.765625 C 9.03125 -8.898438 8.832031 -8.96875 8.5625 -8.96875 C 8.03125 -8.96875 7.398438 -8.664062 6.671875 -8.0625 C 5.941406 -7.46875 5.378906 -6.90625 4.984375 -6.375 L 1.984375 -8.5625 L 20.71875 -36.046875 L 23.90625 -33.859375 C 23.101562 -32.796875 22.703125 -31.597656 22.703125 -30.265625 C 22.703125 -29.609375 22.898438 -29.078125 23.296875 -28.671875 C 26.347656 -26.421875 28.867188 -24.960938 30.859375 -24.296875 C 32.859375 -23.628906 35.453125 -23.296875 38.640625 -23.296875 C 42.617188 -23.296875 46.101562 -25.019531 49.09375 -28.46875 C 52.082031 -31.925781 53.578125 -36.707031 53.578125 -42.8125 L 53.578125 -143.390625 C 53.578125 -144.054688 53.046875 -144.585938 51.984375 -144.984375 C 50.921875 -145.378906 49.925781 -145.578125 49 -145.578125 L 49 -149.375 L 84.25 -149.375 L 84.25 -145.578125 C 83.3125 -145.578125 82.3125 -145.378906 81.25 -144.984375 C 80.1875 -144.585938 79.65625 -144.054688 79.65625 -143.390625 L 79.65625 -42.015625 C 79.65625 -27.816406 76.238281 -16.898438 69.40625 -9.265625 C 62.570312 -1.628906 53.046875 2.1875 40.828125 2.1875 Z M 40.828125 2.1875 "/></g></g></g><g fill="#000000" fill-opacity="1"><g transform="translate(187.761398, 332.300341)"><g><path d="M 98.78125 -5.96875 C 98.78125 -5.3125 99.273438 -4.78125 100.265625 -4.375 C 101.265625 -3.976562 102.226562 -3.78125 103.15625 -3.78125 L 103.15625 0 L 78.46875 0 L 78.46875 -7.375 C 71.425781 -1.257812 63.257812 1.796875 53.96875 1.796875 C 40.03125 1.796875 29.804688 -2.21875 23.296875 -10.25 C 16.796875 -18.289062 13.546875 -28.347656 13.546875 -40.421875 L 13.546875 -85.640625 C 13.546875 -86.304688 13.046875 -86.835938 12.046875 -87.234375 C 11.054688 -87.628906 10.09375 -87.828125 9.15625 -87.828125 L 9.15625 -91.609375 L 43.015625 -91.609375 L 43.015625 -87.828125 C 42.085938 -87.828125 41.125 -87.628906 40.125 -87.234375 C 39.132812 -86.835938 38.640625 -86.304688 38.640625 -85.640625 L 38.640625 -42.015625 C 38.640625 -36.304688 40.097656 -31.492188 43.015625 -27.578125 C 45.941406 -23.660156 50.457031 -21.703125 56.5625 -21.703125 C 62.40625 -21.703125 66.785156 -23.492188 69.703125 -27.078125 C 72.628906 -30.671875 74.09375 -35.253906 74.09375 -40.828125 L 74.09375 -85.640625 C 74.09375 -86.304688 73.59375 -86.835938 72.59375 -87.234375 C 71.59375 -87.628906 70.628906 -87.828125 69.703125 -87.828125 L 69.703125 -91.609375 L 103.15625 -91.609375 L 103.15625 -87.828125 C 102.226562 -87.828125 101.265625 -87.628906 100.265625 -87.234375 C 99.273438 -86.835938 98.78125 -86.304688 98.78125 -85.640625 Z M 98.78125 -5.96875 "/></g></g></g><g fill="#000000" fill-opacity="1"><g transform="translate(337.176032, 280.745242)"><g><path d="M 2.1875 -40.828125 C 2.1875 -35.253906 1.328125 -30.039062 -0.390625 -25.1875 C -2.117188 -20.34375 -4.910156 -15 -8.765625 -9.15625 C -8.898438 -9.03125 -8.96875 -8.832031 -8.96875 -8.5625 C -8.96875 -8.03125 -8.664062 -7.398438 -8.0625 -6.671875 C -7.46875 -5.941406 -6.90625 -5.378906 -6.375 -4.984375 L -8.5625 -1.984375 L -36.046875 -20.71875 L -33.859375 -23.90625 C -32.796875 -23.101562 -31.597656 -22.703125 -30.265625 -22.703125 C -29.609375 -22.703125 -29.078125 -22.898438 -28.671875 -23.296875 C -26.421875 -26.347656 -24.960938 -28.867188 -24.296875 -30.859375 C -23.628906 -32.859375 -23.296875 -35.453125 -23.296875 -38.640625 C -23.296875 -42.617188 -25.019531 -46.101562 -28.46875 -49.09375 C -31.925781 -52.082031 -36.707031 -53.578125 -42.8125 -53.578125 L -143.390625 -53.578125 C -144.054688 -53.578125 -144.585938 -53.046875 -144.984375 -51.984375 C -145.378906 -50.921875 -145.578125 -49.925781 -145.578125 -49 L -149.375 -49 L -149.375 -84.25 L -145.578125 -84.25 C -145.578125 -83.3125 -145.378906 -82.3125 -144.984375 -81.25 C -144.585938 -80.1875 -144.054688 -79.65625 -143.390625 -79.65625 L -42.015625 -79.65625 C -27.816406 -79.65625 -16.898438 -76.238281 -9.265625 -69.40625 C -1.628906 -62.570312 2.1875 -53.046875 2.1875 -40.828125 Z M 2.1875 -40.828125 "/></g></g></g><g fill="#000000" fill-opacity="1"><g transform="translate(337.176032, 186.551049)"><g><path d="M -5.96875 -98.78125 C -5.3125 -98.78125 -4.78125 -99.273438 -4.375 -100.265625 C -3.976562 -101.265625 -3.78125 -102.226562 -3.78125 -103.15625 L 0 -103.15625 L 0 -78.46875 L -7.375 -78.46875 C -1.257812 -71.425781 1.796875 -63.257812 1.796875 -53.96875 C 1.796875 -40.03125 -2.21875 -29.804688 -10.25 -23.296875 C -18.289062 -16.796875 -28.347656 -13.546875 -40.421875 -13.546875 L -85.640625 -13.546875 C -86.304688 -13.546875 -86.835938 -13.046875 -87.234375 -12.046875 C -87.628906 -11.054688 -87.828125 -10.09375 -87.828125 -9.15625 L -91.609375 -9.15625 L -91.609375 -43.015625 L -87.828125 -43.015625 C -87.828125 -42.085938 -87.628906 -41.125 -87.234375 -40.125 C -86.835938 -39.132812 -86.304688 -38.640625 -85.640625 -38.640625 L -42.015625 -38.640625 C -36.304688 -38.640625 -31.492188 -40.097656 -27.578125 -43.015625 C -23.660156 -45.941406 -21.703125 -50.457031 -21.703125 -56.5625 C -21.703125 -62.40625 -23.492188 -66.785156 -27.078125 -69.703125 C -30.671875 -72.628906 -35.253906 -74.09375 -40.828125 -74.09375 L -85.640625 -74.09375 C -86.304688 -74.09375 -86.835938 -73.59375 -87.234375 -72.59375 C -87.628906 -71.59375 -87.828125 -70.628906 -87.828125 -69.703125 L -91.609375 -69.703125 L -91.609375 -103.15625 L -87.828125 -103.15625 C -87.828125 -102.226562 -87.628906 -101.265625 -87.234375 -100.265625 C -86.835938 -99.273438 -86.304688 -98.78125 -85.640625 -98.78125 Z M -5.96875 -98.78125 "/></g></g></g><g fill="#000000" fill-opacity="1"><g transform="translate(280.245969, 42.693433)"><g><path d="M -40.828125 -2.1875 C -35.253906 -2.1875 -30.039062 -1.328125 -25.1875 0.390625 C -20.34375 2.117188 -15 4.910156 -9.15625 8.765625 C -9.03125 8.898438 -8.832031 8.96875 -8.5625 8.96875 C -8.03125 8.96875 -7.398438 8.664062 -6.671875 8.0625 C -5.941406 7.46875 -5.378906 6.90625 -4.984375 6.375 L -1.984375 8.5625 L -20.71875 36.046875 L -23.90625 33.859375 C -23.101562 32.796875 -22.703125 31.597656 -22.703125 30.265625 C -22.703125 29.609375 -22.898438 29.078125 -23.296875 28.671875 C -26.347656 26.421875 -28.867188 24.960938 -30.859375 24.296875 C -32.859375 23.628906 -35.453125 23.296875 -38.640625 23.296875 C -42.617188 23.296875 -46.101562 25.019531 -49.09375 28.46875 C -52.082031 31.925781 -53.578125 36.707031 -53.578125 42.8125 L -53.578125 143.390625 C -53.578125 144.054688 -53.046875 144.585938 -51.984375 144.984375 C -50.921875 145.378906 -49.925781 145.578125 -49 145.578125 L -49 149.375 L -84.25 149.375 L -84.25 145.578125 C -83.3125 145.578125 -82.3125 145.378906 -81.25 144.984375 C -80.1875 144.585938 -79.65625 144.054688 -79.65625 143.390625 L -79.65625 42.015625 C -79.65625 27.816406 -76.238281 16.898438 -69.40625 9.265625 C -62.570312 1.628906 -53.046875 -2.1875 -40.828125 -2.1875 Z M -40.828125 -2.1875 "/></g></g></g><g fill="#000000" fill-opacity="1"><g transform="translate(186.051777, 42.693433)"><g><path d="M -98.78125 5.96875 C -98.78125 5.3125 -99.273438 4.78125 -100.265625 4.375 C -101.265625 3.976562 -102.226562 3.78125 -103.15625 3.78125 L -103.15625 0 L -78.46875 0 L -78.46875 7.375 C -71.425781 1.257812 -63.257812 -1.796875 -53.96875 -1.796875 C -40.03125 -1.796875 -29.804688 2.21875 -23.296875 10.25 C -16.796875 18.289062 -13.546875 28.347656 -13.546875 40.421875 L -13.546875 85.640625 C -13.546875 86.304688 -13.046875 86.835938 -12.046875 87.234375 C -11.054688 87.628906 -10.09375 87.828125 -9.15625 87.828125 L -9.15625 91.609375 L -43.015625 91.609375 L -43.015625 87.828125 C -42.085938 87.828125 -41.125 87.628906 -40.125 87.234375 C -39.132812 86.835938 -38.640625 86.304688 -38.640625 85.640625 L -38.640625 42.015625 C -38.640625 36.304688 -40.097656 31.492188 -43.015625 27.578125 C -45.941406 23.660156 -50.457031 21.703125 -56.5625 21.703125 C -62.40625 21.703125 -66.785156 23.492188 -69.703125 27.078125 C -72.628906 30.671875 -74.09375 35.253906 -74.09375 40.828125 L -74.09375 85.640625 C -74.09375 86.304688 -73.59375 86.835938 -72.59375 87.234375 C -71.59375 87.628906 -70.628906 87.828125 -69.703125 87.828125 L -69.703125 91.609375 L -103.15625 91.609375 L -103.15625 87.828125 C -102.226562 87.828125 -101.265625 87.628906 -100.265625 87.234375 C -99.273438 86.835938 -98.78125 86.304688 -98.78125 85.640625 Z M -98.78125 5.96875 "/></g></g></g><g fill="#000000" fill-opacity="1"><g transform="translate(37.814305, 96.87424)"><g><path d="M -2.1875 40.828125 C -2.1875 35.253906 -1.328125 30.039062 0.390625 25.1875 C 2.117188 20.34375 4.910156 15 8.765625 9.15625 C 8.898438 9.03125 8.96875 8.832031 8.96875 8.5625 C 8.96875 8.03125 8.664062 7.398438 8.0625 6.671875 C 7.46875 5.941406 6.90625 5.378906 6.375 4.984375 L 8.5625 1.984375 L 36.046875 20.71875 L 33.859375 23.90625 C 32.796875 23.101562 31.597656 22.703125 30.265625 22.703125 C 29.609375 22.703125 29.078125 22.898438 28.671875 23.296875 C 26.421875 26.347656 24.960938 28.867188 24.296875 30.859375 C 23.628906 32.859375 23.296875 35.453125 23.296875 38.640625 C 23.296875 42.617188 25.019531 46.101562 28.46875 49.09375 C 31.925781 52.082031 36.707031 53.578125 42.8125 53.578125 L 143.390625 53.578125 C 144.054688 53.578125 144.585938 53.046875 144.984375 51.984375 C 145.378906 50.921875 145.578125 49.925781 145.578125 49 L 149.375 49 L 149.375 84.25 L 145.578125 84.25 C 145.578125 83.3125 145.378906 82.3125 144.984375 81.25 C 144.585938 80.1875 144.054688 79.65625 143.390625 79.65625 L 42.015625 79.65625 C 27.816406 79.65625 16.898438 76.238281 9.265625 69.40625 C 1.628906 62.570312 -2.1875 53.046875 -2.1875 40.828125 Z M -2.1875 40.828125 "/></g></g></g><g fill="#000000" fill-opacity="1"><g transform="translate(37.814305, 191.068432)"><g><path d="M 5.96875 98.78125 C 5.3125 98.78125 4.78125 99.273438 4.375 100.265625 C 3.976562 101.265625 3.78125 102.226562 3.78125 103.15625 L 0 103.15625 L 0 78.46875 L 7.375 78.46875 C 1.257812 71.425781 -1.796875 63.257812 -1.796875 53.96875 C -1.796875 40.03125 2.21875 29.804688 10.25 23.296875 C 18.289062 16.796875 28.347656 13.546875 40.421875 13.546875 L 85.640625 13.546875 C 86.304688 13.546875 86.835938 13.046875 87.234375 12.046875 C 87.628906 11.054688 87.828125 10.09375 87.828125 9.15625 L 91.609375 9.15625 L 91.609375 43.015625 L 87.828125 43.015625 C 87.828125 42.085938 87.628906 41.125 87.234375 40.125 C 86.835938 39.132812 86.304688 38.640625 85.640625 38.640625 L 42.015625 38.640625 C 36.304688 38.640625 31.492188 40.097656 27.578125 43.015625 C 23.660156 45.941406 21.703125 50.457031 21.703125 56.5625 C 21.703125 62.40625 23.492188 66.785156 27.078125 69.703125 C 30.671875 72.628906 35.253906 74.09375 40.828125 74.09375 L 85.640625 74.09375 C 86.304688 74.09375 86.835938 73.59375 87.234375 72.59375 C 87.628906 71.59375 87.828125 70.628906 87.828125 69.703125 L 91.609375 69.703125 L 91.609375 103.15625 L 87.828125 103.15625 C 87.828125 102.226562 87.628906 101.265625 87.234375 100.265625 C 86.835938 99.273438 86.304688 98.78125 85.640625 98.78125 Z M 5.96875 98.78125 "/></g></g></g></svg>