<?xml version="1.0" encoding="UTF-8" standalone="no"?>
<!-- Created with Inkscape (http://www.inkscape.org/) -->

<svg
   width="210mm"
   height="297mm"
   viewBox="0 0 210 297"
   version="1.1"
   id="svg1"
   xml:space="preserve"
   inkscape:export-filename="image.svg"
   inkscape:export-xdpi="96"
   inkscape:export-ydpi="96"
   sodipodi:docname="image.svg"
   inkscape:version="1.3 (0e150ed6c4, 2023-07-21)"
   xmlns:inkscape="http://www.inkscape.org/namespaces/inkscape"
   xmlns:sodipodi="http://sodipodi.sourceforge.net/DTD/sodipodi-0.dtd"
   xmlns="http://www.w3.org/2000/svg"
   xmlns:svg="http://www.w3.org/2000/svg"><sodipodi:namedview
     id="namedview1"
     pagecolor="#505050"
     bordercolor="#ffffff"
     borderopacity="1"
     inkscape:showpageshadow="0"
     inkscape:pageopacity="0"
     inkscape:pagecheckerboard="1"
     inkscape:deskcolor="#505050"
     inkscape:document-units="mm"
     inkscape:export-bgcolor="#ffffff00"
     showguides="true"
     inkscape:zoom="5.6568543"
     inkscape:cx="571.34228"
     inkscape:cy="976.77963"
     inkscape:window-width="1920"
     inkscape:window-height="991"
     inkscape:window-x="2391"
     inkscape:window-y="-9"
     inkscape:window-maximized="1"
     inkscape:current-layer="layer1" /><defs
     id="defs1"><inkscape:path-effect
       effect="bspline"
       id="path-effect40"
       is_visible="true"
       lpeversion="1.3"
       weight="33.333333"
       steps="2"
       helper_size="0"
       apply_no_weight="true"
       apply_with_weight="true"
       only_selected="false"
       uniform="false" /><inkscape:path-effect
       effect="bspline"
       id="path-effect39"
       is_visible="true"
       lpeversion="1.3"
       weight="33.333333"
       steps="2"
       helper_size="0"
       apply_no_weight="true"
       apply_with_weight="true"
       only_selected="false"
       uniform="false" /><inkscape:path-effect
       effect="bspline"
       id="path-effect35"
       is_visible="true"
       lpeversion="1.3"
       weight="33.333333"
       steps="2"
       helper_size="0"
       apply_no_weight="true"
       apply_with_weight="true"
       only_selected="false"
       uniform="false" /><inkscape:path-effect
       effect="bspline"
       id="path-effect34"
       is_visible="true"
       lpeversion="1.3"
       weight="33.333333"
       steps="2"
       helper_size="0"
       apply_no_weight="true"
       apply_with_weight="true"
       only_selected="false"
       uniform="false" /><inkscape:path-effect
       effect="bspline"
       id="path-effect33"
       is_visible="true"
       lpeversion="1.3"
       weight="33.333333"
       steps="2"
       helper_size="0"
       apply_no_weight="true"
       apply_with_weight="true"
       only_selected="false"
       uniform="false" /><inkscape:path-effect
       effect="bspline"
       id="path-effect21"
       is_visible="true"
       lpeversion="1.3"
       weight="33.333333"
       steps="2"
       helper_size="0"
       apply_no_weight="true"
       apply_with_weight="true"
       only_selected="false"
       uniform="false" /></defs><g
     inkscape:label="Calque 1"
     inkscape:groupmode="layer"
     id="layer1"><path
       style="opacity:1;fill:#000000;fill-opacity:1;stroke:none;stroke-width:1.5631"
       d="m 86.223197,288.19583 c -8.913501,-4.1827 -10.070268,-7.26984 -10.331975,-27.57362 -0.20953,-16.25562 -0.417419,-17.7082 -3.235887,-22.60979 C 70.998753,235.13147 59.774359,214.37484 47.712249,191.8866 35.65014,169.39836 24.447206,149.04262 22.816855,146.65161 17.734243,139.1977 13.974418,131.65717 10.490895,121.93124 7.3880508,113.26817 7.1331374,111.25861 7.1331374,95.461266 c 0,-15.79737 0.2549134,-17.806934 3.3577576,-26.47 4.15093,-11.589317 7.828512,-18.472781 14.436547,-27.02144 C 51.909136,7.0642281 99.815911,-6.1252083 143.19688,9.4085061 c 27.20035,9.7398039 48.65749,31.0235829 58.71245,58.2380979 3.82511,10.352965 3.95964,11.303925 3.93497,27.814662 -0.0235,15.728674 -0.29253,17.844574 -3.36547,26.469974 -3.47496,9.75381 -7.34988,17.52998 -12.06364,24.20921 -1.51968,2.15334 -12.63266,22.27869 -24.69553,44.72306 -12.06284,22.44434 -23.38776,43.4582 -25.16644,46.69747 -3.07046,5.59187 -3.24524,6.76268 -3.45739,23.16124 -0.25921,20.03909 -1.38668,23.05077 -10.25463,27.39227 -4.67933,2.29087 -6.83227,2.56292 -20.28237,2.56292 -13.243528,0 -15.681272,-0.29748 -20.335633,-2.48158 z m 19.079273,-55.34825 v -10.40445 l -3.27615,-0.34899 c -3.168246,-0.33749 -3.287647,-0.59153 -3.62644,-7.71495 l -0.350318,-7.36596 -9.775899,0.28243 -9.775886,0.28242 -0.327336,17.83697 -0.327347,17.83697 h 13.729689 13.729687 z m 29.78298,-7.60738 v -18.01179 l -10.07104,-0.21758 -10.071,-0.21757 -0.35302,7.47595 c -0.34204,7.24275 -0.45522,7.48683 -3.62915,7.82493 l -3.27614,0.34899 v 10.40445 10.40444 h 13.70015 13.7002 z M 67.511379,196.31607 C 63.070283,190.47082 58.648678,184.61935 57.685573,183.31279 51.752309,175.26375 47.202944,170.52365 40.89344,165.81667 l -7.143983,-5.32951 2.25077,4.159 c 1.237924,2.28747 10.502168,19.5447 20.587178,38.34943 l 18.336409,34.19039 0.331156,-15.12109 0.331129,-15.12107 z m 81.817241,19.91449 c 4.15898,-7.88584 12.57609,-23.64373 18.70467,-35.01754 l 11.14284,-20.67962 -7.45169,5.51623 c -4.09842,3.03396 -9.86411,8.69658 -12.81263,12.58364 -2.9485,3.88705 -8.97957,11.82705 -13.40234,17.64442 l -8.0414,10.57704 0.003,15.16563 0.003,15.16562 2.1449,-3.30874 c 1.1797,-1.81982 5.54774,-9.76081 9.70671,-17.64668 z"
       id="path1" /><path
       style="opacity:1;fill:#000000;fill-opacity:1;fill-rule:evenodd;stroke:none;stroke-width:4.23333"
       d="m 98.113113,207.10516 c 3.783977,0 7.567957,0 11.351927,0 0.78833,0 1.57666,0 2.36499,0 0.17493,0 0.58038,0.0814 0.74328,0 0.35041,-0.17521 0.83909,-0.0409 1.21628,-0.13514 0.31057,-0.0777 0.0153,-0.0676 0.20271,-0.0676 0.0278,0 0.18483,0.0179 0.20271,0 0.0159,-0.0159 -0.0159,-0.0516 0,-0.0676 0.0563,-0.0563 0.28155,0.0563 0.33786,0 0.0159,-0.0159 -0.0159,-0.0516 0,-0.0676 0.0263,-0.0263 0.22905,0 0.27028,0"
       id="path2" /><path
       style="opacity:1;fill:#000000;fill-opacity:1;fill-rule:evenodd;stroke:none;stroke-width:11.5575;stroke-opacity:1"
       d="m 363.3381,1097.6201 c -17.42651,-1.1468 -24.68405,-2.8875 -37.65368,-9.0312 -20.6784,-9.7954 -28.66775,-18.2803 -33.0948,-35.1477 -3.58917,-13.675 -4.51781,-26.0472 -5.45277,-72.64716 -1.22352,-60.98196 -1.355,-61.72973 -15.30853,-87.06211 C 260.11293,872.46287 239.5808,834.50093 193.58571,749.0688 119.9157,612.23277 93.479752,564.27005 83.898591,550.06354 77.32336,540.31408 68.290691,524.65695 61.812313,511.77941 47.180113,482.69393 32.813511,443.81878 30.045626,425.82069 c -0.458235,-2.97966 -0.978019,-6.31146 -1.155075,-7.40401 l -0.321919,-1.98644 H 402.36263 c 221.21888,0 373.794,0.26555 373.794,0.65056 0,2.37283 -3.138,18.16838 -4.67818,23.54791 -5.06665,17.69746 -16.23731,46.38128 -25.60446,65.74662 -7.58039,15.67149 -12.87661,25.00619 -23.148,40.79884 -7.54525,11.60112 -10.1632,16.03686 -23.66086,40.08999 -15.91228,28.35605 -58.90215,107.40917 -96.63292,177.69617 -7.46439,13.90508 -26.90354,49.98607 -43.19811,80.17997 -33.26855,61.64677 -35.33537,65.71356 -37.26312,73.32097 -2.78055,10.97284 -3.18768,17.70662 -4.43262,73.31449 -0.37357,16.68614 -1.02059,34.07644 -1.43785,38.64534 -3.14394,34.4259 -10.61933,45.8351 -38.59776,58.9095 -8.35991,3.9066 -16.67002,6.3828 -25.31657,7.5436 -7.73492,1.0385 -75.72728,1.6093 -88.84808,0.7459 z m 35.03359,-217.4462 c 0,-21.85085 -0.24379,-39.73896 -0.54176,-39.75135 -3.45624,-0.14375 -17.61942,-2.19905 -19.10428,-2.77234 -4.61383,-1.78135 -5.29617,-5.17327 -6.75688,-33.58865 -0.61394,-11.94314 -1.18499,-21.78354 -1.269,-21.86756 -0.2563,-0.25629 -73.79884,2.01594 -74.07438,2.28866 -0.14149,0.14003 -0.68854,24.08448 -1.21568,53.2099 -0.52715,29.12541 -1.11904,59.53764 -1.31532,67.58273 l -0.35688,14.62743 h 52.31709 52.31709 z m 112.68537,-28.78984 v -68.51864 l -24.74021,-0.47287 c -13.60712,-0.26008 -30.9373,-0.67566 -38.51152,-0.92353 l -13.77129,-0.45065 -0.90624,20.14232 c -0.98725,21.9428 -1.73887,29.7369 -3.14371,32.59928 -1.70723,3.4785 -3.98565,4.41883 -13.53228,5.58488 -4.95424,0.60513 -9.2612,1.10023 -9.57103,1.10023 -0.68338,0 -0.76443,78.29341 -0.0818,78.97607 0.26485,0.26486 23.83126,0.48157 52.3698,0.48157 h 51.88824 z m -226.48324,-2.91529 c 0.61187,-26.34247 1.1125,-52.1885 1.1125,-57.43562 v -9.54021 L 250.9628,735.66485 c -19.09793,-25.20546 -37.59704,-49.56623 -41.10913,-54.13504 -14.26833,-18.56141 -30.25964,-35.34177 -45.15966,-47.38799 -9.98683,-8.07404 -36.63047,-27.82419 -37.01588,-27.43878 -0.1737,0.17371 6.8258,13.58646 15.55444,29.80612 20.58227,38.24618 136.7931,254.84452 138.42293,257.99812 0.68639,1.32811 1.37349,2.28923 1.5269,2.13582 0.15341,-0.15341 0.77955,-21.83186 1.39142,-48.17433 z m 240.65211,40.15733 c 7.48558,-11.78421 19.82357,-34.22112 50.12885,-91.16038 25.09356,-47.14717 53.82462,-100.74989 87.6766,-163.5757 7.80316,-14.48188 14.10109,-26.57157 13.99539,-26.86597 -0.27855,-0.77583 -32.39891,23.24685 -40.37778,30.19836 -7.95409,6.92994 -25.54975,24.60197 -31.16993,31.30524 -2.16512,2.58237 -22.50801,29.13977 -45.20641,59.01644 l -41.26982,54.32122 v 57.46122 c 0,31.60369 0.24379,57.44535 0.54175,57.42592 0.29797,-0.0194 2.85458,-3.67628 5.68135,-8.12635 z"
       id="path8"
       transform="scale(0.26458333)" /><path
       style="opacity:1;fill:#000000;fill-opacity:1;fill-rule:evenodd;stroke:none;stroke-width:11.5575;stroke-opacity:1"
       d="m 362.76309,1097.5954 c -17.39583,-1.1283 -24.20901,-2.8512 -38.43147,-9.7182 -16.25569,-7.8487 -23.15654,-13.8519 -28.26642,-24.5896 -6.28764,-13.2125 -7.8389,-27.491 -8.93835,-82.27208 -0.93911,-46.79169 -1.90649,-58.20929 -5.81496,-68.6307 -0.75875,-2.02312 -8.73542,-17.16815 -17.72592,-33.65561 -8.9905,-16.48746 -37.96718,-70.12136 -64.39263,-119.18645 C 118.85234,610.37069 93.201796,563.81951 83.169461,548.98003 77.49574,540.58765 68.108345,524.29074 62.157142,512.50175 47.334564,483.13908 32.845725,444.02825 30.045626,425.82069 c -0.458235,-2.97966 -0.978019,-6.31146 -1.155075,-7.40401 l -0.321919,-1.98644 H 402.36263 c 205.5867,0 373.7927,0.24379 373.79111,0.54176 -0.0132,2.45982 -2.61618,15.81598 -4.37169,22.43168 -4.41676,16.64468 -16.15157,46.90418 -26.27623,67.75615 -7.17729,14.78178 -12.64016,24.41527 -22.07655,38.93083 -10.85786,16.70216 -19.92433,32.70308 -56.68725,100.04438 -38.71219,70.91193 -139.35288,258.16131 -141.81895,263.86455 -5.12611,11.85508 -6.12309,22.62007 -7.37292,79.60914 -0.78135,35.62787 -1.36093,44.62547 -3.67581,57.06507 -3.89517,20.9314 -11.52671,30.3355 -33.37871,41.1313 -10.52658,5.2005 -18.48548,7.7502 -28.30945,9.0691 -7.8793,1.0579 -75.78851,1.6055 -89.42309,0.7212 z m 35.6086,-217.4215 c 0,-21.85085 -0.2535,-39.72882 -0.56333,-39.72882 -3.68757,0 -18.95399,-2.4834 -20.17185,-3.28137 -3.6753,-2.40815 -4.24369,-5.71926 -5.67888,-33.08229 -0.62805,-11.9743 -1.20347,-21.83302 -1.27871,-21.90827 -0.2294,-0.22939 -73.77931,2.05144 -74.03343,2.29583 -0.13042,0.12544 -0.67991,24.39204 -1.22109,53.92581 -0.54118,29.53376 -1.1377,59.95504 -1.32559,67.60284 l -0.34163,13.90509 h 52.30725 52.30726 z m 112.68537,-28.78662 v -68.51542 l -24.74021,-0.47242 c -13.60712,-0.25983 -30.93363,-0.67673 -38.50334,-0.92644 l -13.76312,-0.45403 -0.90543,20.14202 c -0.49799,11.07811 -1.20752,22.52634 -1.57672,25.44052 -1.2746,10.0605 -2.74064,11.30708 -14.98525,12.74216 -4.87085,0.57086 -9.17322,1.23392 -9.56082,1.47347 -0.7967,0.49239 -1.0162,77.81096 -0.22315,78.60401 0.26485,0.26486 23.83126,0.48157 52.3698,0.48157 h 51.88824 z m -226.4883,-3.16924 c 0.61465,-26.48593 1.11756,-52.33619 1.11756,-57.44501 v -9.28878 l -16.72781,-21.98646 c -9.20028,-12.09256 -26.66737,-35.15115 -38.81575,-51.24132 -39.90587,-52.8542 -48.07614,-61.41298 -84.89428,-88.93116 -9.50319,-7.10276 -17.40156,-12.79106 -17.55195,-12.64066 -0.15039,0.15039 13.92443,26.72243 31.27737,59.04897 53.20601,99.11667 121.37075,226.22558 122.68454,228.77366 0.68477,1.32811 1.36827,2.2915 1.5189,2.14088 0.15062,-0.15063 0.77676,-21.94418 1.39142,-48.43012 z m 242.24782,37.71826 c 7.18676,-11.51459 19.75368,-34.52836 57.38247,-105.08445 19.28115,-36.15322 48.08061,-89.93511 63.99879,-119.5153 15.91819,-29.5802 28.81089,-53.91345 28.65046,-54.07389 -0.372,-0.37198 -2.07995,0.83443 -19.05285,13.45803 -17.60082,13.0906 -25.83516,20.21642 -39.49563,34.17866 -13.02867,13.31649 -9.41674,8.78649 -59.08152,74.09871 l -40.21547,52.88582 0.026,57.63253 0.026,57.63253 1.60409,-1.95843 c 0.88225,-1.07714 3.65321,-5.24153 6.1577,-9.25421 z"
       id="path9"
       transform="scale(0.26458333)" /><path
       style="opacity:1;fill:#000000;fill-opacity:1;fill-rule:evenodd;stroke:none;stroke-width:11.5575;stroke-opacity:1"
       d="m 362.25458,1097.5892 c -16.70504,-1.0383 -25.64908,-3.4399 -40.45116,-10.8618 -23.91161,-11.9895 -30.39557,-23.7255 -33.22093,-60.13 -0.39446,-5.0828 -1.05143,-25.3986 -1.45991,-45.14643 -1.02194,-49.40426 -1.95309,-59.59782 -6.41409,-70.21636 -1.08489,-2.58237 -10.1191,-19.64771 -20.07601,-37.92296 C 250.67556,855.03639 220.99163,800.10227 194.66817,751.23583 112.71404,599.09745 96.649774,570.09418 78.64234,541.75661 66.430612,522.5395 54.628284,498.8609 45.338338,474.93996 36.911648,453.24183 31.650946,436.29122 29.981846,425.45952 c -0.428538,-2.78102 -0.921822,-5.95029 -1.096187,-7.04284 l -0.317027,-1.98644 H 402.36263 c 221.21888,0 373.794,0.26555 373.794,0.65056 0,2.80699 -3.28001,18.67002 -5.31716,25.71493 -5.35328,18.51349 -17.17152,48.15651 -27.24757,68.34366 -6.65812,13.33945 -10.7069,20.35198 -20.17957,34.95127 -8.74919,13.48427 -16.40967,26.80658 -38.62804,67.17782 -43.27396,78.62967 -157.52811,291.01699 -160.48572,298.3273 -4.5146,11.1587 -5.47899,22.41043 -6.74839,78.73529 -0.40292,17.87793 -1.06836,36.08103 -1.47875,40.45113 -3.14608,33.5017 -9.90973,44.3428 -35.5758,57.0229 -10.52658,5.2005 -18.48548,7.7502 -28.30945,9.0691 -7.92247,1.0637 -75.65779,1.6022 -89.9316,0.715 z m 36.11711,-217.4153 c 0,-21.85085 -0.2535,-39.72882 -0.56333,-39.72882 -3.84338,0 -18.96655,-2.49163 -20.25759,-3.33755 -3.60134,-2.35969 -4.45874,-7.86749 -5.94618,-38.19712 -0.44813,-9.13763 -0.86615,-16.66665 -0.92893,-16.73116 -0.0628,-0.0645 -9.37818,0.16224 -20.70089,0.50387 -11.32272,0.34164 -27.94783,0.84385 -36.94471,1.11602 l -16.35796,0.49486 -0.4425,13.80928 c -0.24338,7.59511 -0.76276,33.96263 -1.15418,58.5945 -0.39142,24.63187 -0.87758,48.92965 -1.08035,53.99507 l -0.36867,9.20987 h 52.37265 52.37264 z m 112.68537,-28.80892 v -68.53774 l -29.07427,-0.57328 c -15.99085,-0.3153 -33.29997,-0.59723 -38.46472,-0.62652 l -9.39044,-0.0532 -0.85909,18.41972 c -0.99899,21.41942 -1.92116,30.98408 -3.24825,33.6905 -1.78969,3.64988 -4.02052,4.58812 -13.55777,5.70219 -4.90889,0.57342 -9.11846,1.23549 -9.35458,1.47128 -0.58323,0.58241 -1.01204,73.66448 -0.44981,76.66143 l 0.44713,2.3834 h 51.9759 51.9759 z M 283.74723,881.438 c 0.2499,-8.04509 0.84566,-33.70986 1.32389,-57.03284 l 0.86953,-42.4054 -15.11576,-19.9563 c -8.31368,-10.97596 -25.59796,-33.80683 -38.40952,-50.73526 -32.99359,-43.59576 -42.01295,-54.26373 -58.33091,-68.99304 -8.08054,-7.29384 -44.99863,-35.57512 -45.62359,-34.95017 -0.50285,0.50285 -1.4387,-1.26223 64.02522,120.75589 33.25124,61.97695 67.0927,125.10844 75.20325,140.2922 8.11054,15.18376 14.93928,27.61707 15.17497,27.62959 0.2357,0.0125 0.63301,-6.55959 0.88292,-14.60467 z m 241.94317,6.1399 c 8.73246,-13.86317 17.04256,-28.99665 53.44896,-97.3356 22.72883,-42.66462 40.57447,-75.98337 78.345,-146.27428 9.92687,-18.4739 18.43437,-34.32028 18.90554,-35.21418 0.47118,-0.8939 0.59865,-1.62527 0.28328,-1.62527 -1.06474,0 -33.94974,24.9567 -41.12172,31.2076 -8.72947,7.60838 -25.82357,25.03647 -31.73839,32.35851 -2.407,2.97966 -22.47399,29.23695 -44.5933,58.34953 l -40.21694,52.93196 v 57.04463 c 0,34.61565 0.26367,57.04462 0.67063,57.04462 0.36884,0 3.07647,-3.81938 6.01694,-8.48752 z"
       id="path10"
       transform="scale(0.26458333)" /><path
       style="fill:#e16537;fill-opacity:1;fill-rule:evenodd;stroke:none;stroke-width:1.24798;stroke-opacity:1;paint-order:markers stroke fill"
       d="m 98.032455,207.01846 0.401183,8.0783 c 0.02442,0.9977 0.10355,1.99628 0.184123,2.98275 0.04726,0.67688 0.161644,1.35377 0.274734,2.03065 0.09653,0.28668 0.195626,0.57336 0.35835,0.86004 0.05283,0.0918 0.11841,0.18688 0.203065,0.28668 0.08197,0.10399 0.190814,0.20159 0.328487,0.28967 0.163763,0.12789 0.381883,0.20143 0.591273,0.28369 0.36877,0.0991 0.7422,0.17741 1.13478,0.22098 l 3.75918,0.41735 2.4732,-0.004 2.92942,-0.32395 c 0.61472,-0.0651 1.22248,-0.14182 1.80369,-0.26279 l 0.56141,-0.17918 0.46586,-0.38224 0.21501,-0.31057 0.21501,-0.39418 0.11945,-0.38224 0.11945,-0.5853 c 0.0551,-0.30892 0.0961,-0.63192 0.14057,-0.95138 0.15101,-1.22397 0.19023,-2.48617 0.25361,-3.743 l 0.21224,-4.2967 0.18194,-3.82589"
       id="path19"
       sodipodi:nodetypes="ccccccccccccccccccccccc" /><path
       style="fill:#e16537;fill-opacity:1;fill-rule:evenodd;stroke:none;stroke-width:1.24798;stroke-opacity:1;paint-order:markers stroke fill"
       d="m 77.882188,243.24667 -2.96327,0.0248 0.238901,1.07506 0.167229,1.19449 0.2389,2.66373 0.16723,3.53572 0.09556,5.00495 0.08361,4.89744 c -0.0172,1.89129 0.07603,3.78257 0.131399,5.67386 l 0.09556,2.50845 0.155285,2.18593 c 0.04671,0.63707 0.104658,1.27413 0.16723,1.9112 0.06242,0.5103 0.100393,1.03282 0.191119,1.52896 l 0.101286,0.71148 0.177374,1.03468 0.202713,0.95866 c 0.06894,0.29091 0.13597,0.57631 0.221717,0.87842 l 0.230164,0.79397 0.329409,0.90376 0.380086,0.86575 0.333632,0.62081 c 0.09315,0.1616 0.180639,0.32072 0.295624,0.48778 0.112232,0.18833 0.285757,0.42442 0.426542,0.63559 l 0.519452,0.6377 0.527898,0.55746 0.616586,0.57013 0.66304,0.51101 0.60814,0.43499 0.608139,0.38431 0.612362,0.37164 1.114922,0.60391 1.009342,0.50679 1.114922,0.52367 0.979779,0.43077 0.853084,0.3294 1.114922,0.3632 0.891093,0.24494 1.119145,0.22806 1.047351,0.16892 0.625031,0.076 0.853084,0.0887 0.798183,0.0676 1.524571,0.0929 1.617481,0.0633 3.737525,0.0676 1.55413,0.0127 5.26209,0.008 5.27477,-0.0629 1.40209,-0.038 0.99668,-0.038 1.84553,-0.10984 1.05157,-0.0971 1.17827,-0.1394 0.82775,-0.13937 0.68838,-0.13936 0.8193,-0.19849 0.63347,-0.19005 0.65038,-0.21116 0.49833,-0.19004 1.16138,-0.49411 0.9291,-0.43077 1.01779,-0.50678 1.0938,-0.5828 1.0558,-0.61659 1.0009,-0.65037 0.78551,-0.57857 0.59969,-0.51946 0.54902,-0.52789 0.511,-0.57014 0.32519,-0.4012 0.39276,-0.56168 c 0.12042,-0.19136 0.23625,-0.36207 0.37164,-0.62081 l 0.26606,-0.48989 0.2745,-0.59125 0.27029,-0.66304 0.25339,-0.72216 0.26606,-0.90377 c 0.0836,-0.35799 0.16922,-0.71173 0.24917,-1.07691 0.061,-0.282 0.1158,-0.56713 0.16893,-0.85308 l 0.15203,-0.86998 0.14781,-1.10647 0.16471,-1.49924 0.11825,-1.37253 0.10558,-1.58792 0.10558,-2.17494 0.0633,-2.01446 0.0549,-1.72307 0.0423,-2.68594 0.0253,-1.72306 0.038,-2.93512 0.0634,-3.04914 0.076,-2.77041 0.12246,-2.70284 0.12247,-1.54147 0.11825,-1.18671 0.12248,-0.86153 0.11825,-0.67149 0.21538,-1.02624"
       id="path20"
       sodipodi:nodetypes="cccccccccccccccccccccccccccccccccccccccccccccccccccccccccccccccccccccccccccccccccccccccccccccccccc" /><path
       style="fill:#a85400;fill-opacity:1;fill-rule:evenodd;stroke:none;stroke-width:1.24798;stroke-opacity:1;paint-order:markers stroke fill"
       d="m 81.680687,285.63956 c 0,0 -0.30407,-0.43921 -0.30407,-0.43921"
       id="path21"
       inkscape:path-effect="#path-effect21"
       inkscape:original-d="m 81.680687,285.63956 -0.30407,-0.43921" /><path
       style="fill:#ffd163;fill-opacity:1;fill-rule:evenodd;stroke:none;stroke-width:1.24798;stroke-opacity:1;paint-order:markers stroke fill"
       d="m 108.21458,268.55208 -6.35,-2.64583"
       id="path29" /><path
       style="fill:#ffd163;fill-opacity:1;fill-rule:evenodd;stroke:none;stroke-width:1.24798;stroke-opacity:1;paint-order:markers stroke fill"
       d="M 74.918918,243.27147 96.245803,243.35"
       id="path31" /><path
       style="fill:#ffee80;fill-opacity:1;fill-rule:evenodd;stroke:none;stroke-width:1.17245;stroke-opacity:1;paint-order:markers stroke fill"
       d="m 95.832651,243.18672 c -0.01872,0.49556 -0.0437,0.99152 -0.136746,1.49196 -0.05017,0.30249 -0.118104,0.59195 -0.195248,0.87462 l -0.240924,0.81379 -0.469762,1.02166 -0.481206,0.82153 -0.802028,1.04273 -0.779101,0.80047 -0.836393,0.66355 -0.813482,0.54769 -1.363434,0.67408 -1.306152,0.4529 -1.237406,0.26331 -1.271778,0.13693 H 84.86782 l -1.237405,-0.10533 -0.928053,-0.18959 -1.283235,-0.40023 -1.214492,-0.53716 -1.180115,-0.71622 -0.824938,-0.65301 -0.847851,-0.83207 -0.664534,-0.78994 -0.744734,-1.20071 -0.687447,-1.67467 -0.286437,-1.44296 -0.04582,-1.02165"
       id="path32"
       sodipodi:nodetypes="ccccccccccccccccccccccccccc" /><path
       style="fill:#ffee80;fill-opacity:1;fill-rule:evenodd;stroke:none;stroke-width:1.17523;stroke-opacity:1;paint-order:markers stroke fill"
       d="m 116.74151,243.15208 c -0.0189,0.49556 -0.0439,0.99152 -0.13739,1.49196 -0.0504,0.30249 -0.11867,0.59195 -0.19619,0.87462 l -0.24206,0.81379 -0.47199,1.02166 -0.48349,0.82153 -0.80583,1.04273 -0.7828,0.80047 -0.84036,0.66355 -0.81734,0.54769 -1.36991,0.67408 -1.31234,0.4529 -1.24329,0.26331 -1.27781,0.13693 h -1.03606 l -1.24328,-0.10533 -0.93246,-0.18959 -1.28932,-0.40023 -1.22025,-0.53716 -1.185721,-0.71622 -0.828851,-0.65301 -0.85187,-0.83207 -0.667687,-0.78994 -0.748267,-1.20071 -0.69071,-1.67467 -0.287795,-1.44296 -0.04604,-1.02165"
       id="path32-6"
       sodipodi:nodetypes="ccccccccccccccccccccccccccc" /><path
       style="fill:#ffee80;fill-opacity:1;fill-rule:evenodd;stroke:none;stroke-width:1.18993;stroke-opacity:1;paint-order:markers stroke fill"
       d="m 138.13,243.09729 c -0.0193,0.49556 -0.045,0.99152 -0.14085,1.49196 -0.0517,0.30249 -0.12166,0.59195 -0.20113,0.87462 l -0.24816,0.81379 -0.48387,1.02166 -0.49568,0.82153 -0.82612,1.04273 -0.80252,0.80047 -0.86153,0.66355 -0.83792,0.54769 -1.40441,0.67408 -1.34541,0.4529 -1.27459,0.26331 -1.31,0.13693 h -1.06216 l -1.27459,-0.10533 -0.95594,-0.18959 -1.32181,-0.40023 -1.25098,-0.53716 -1.21558,-0.71622 -0.84973,-0.65301 -0.87333,-0.83207 -0.6845,-0.78994 -0.76712,-1.20071 -0.70811,-1.67467 -0.29505,-1.44296 -0.0472,-1.02165"
       id="path32-6-1"
       sodipodi:nodetypes="ccccccccccccccccccccccccccc" /><path
       style="fill:#7863ff;fill-opacity:1;fill-rule:evenodd;stroke:none;stroke-width:1.24798;stroke-opacity:1;paint-order:markers stroke fill"
       d="m 75.596418,246.85625 c -0.01111,0.003 -0.02219,0.005 -0.03307,0.008"
       id="path33"
       inkscape:path-effect="#path-effect33"
       inkscape:original-d="m 75.596418,246.85625 c -0.01103,0.003 -0.02204,0.006 -0.03307,0.008" /><path
       style="fill:#7863ff;fill-opacity:1;fill-rule:evenodd;stroke:none;stroke-width:1.24798;stroke-opacity:1;paint-order:markers stroke fill"
       d="m 75.609854,246.91516 c -0.0049,0.002 -0.0096,0.003 -0.01447,0.005"
       id="path34"
       inkscape:path-effect="#path-effect34"
       inkscape:original-d="m 75.609854,246.91516 c -0.0048,0.002 -0.0097,0.003 -0.01447,0.005" /><path
       style="fill:#7863ff;fill-opacity:1;fill-rule:evenodd;stroke:none;stroke-width:1.24798;stroke-opacity:1;paint-order:markers stroke fill"
       d="m 96.17604,244.08019 c 0,0 0.05994,-0.0103 0.05994,-0.0103"
       id="path35"
       inkscape:path-effect="#path-effect35"
       inkscape:original-d="m 96.17604,244.08019 0.05994,-0.0103" /><path
       style="fill:#ffee80;fill-opacity:1;fill-rule:evenodd;stroke:none;stroke-width:1.24798;stroke-opacity:1;paint-order:markers stroke fill"
       d="m 135.06979,207.25143 2.39774,-0.008 c -3.7e-4,-0.12779 -7.5e-4,-0.24327 -0.001,-0.38336 l 0.26594,-0.35371 0.23532,-0.30841 0.20025,-0.25871 0.26309,-0.34933 0.29671,-0.38733 0.16516,-0.21924 0.34933,-0.45603 0.35372,-0.46772 0.26601,-0.34787 0.31864,-0.42095 0.35225,-0.46041 0.32887,-0.43557 0.30987,-0.40926 0.27624,-0.36102 0.24556,-0.32302 0.30402,-0.39756 0.35517,-0.47065 0.29671,-0.39171 0.37272,-0.48819 0.39464,-0.52034 0.44287,-0.5788 0.32741,-0.43265 0.42095,-0.55834 0.42533,-0.55542 0.58027,-0.76151 0.61827,-0.81997 0.22655,-0.29233 0.26602,-0.35225 0.24848,-0.32448 0.56272,-0.74544 0.24702,-0.32155 0.63581,-0.83752 0.75566,-0.98952 0.52911,-0.70012 0.37418,-0.49257 0.39902,-0.52034 0.54665,-0.72059 0.58173,-0.76735 0.79513,-1.04653 0.75712,-0.99683 0.74836,-0.9866 0.81413,-1.07138 0.78635,-1.03629 0.75859,-0.9983 0.71474,-0.94421 0.84043,-1.10353 0.79805,-1.05822 0.42095,-0.54811 0.15201,-0.20171 0.14763,-0.1827 0.15347,-0.19293 0.13155,-0.16663 0.0979,-0.12132 0.10234,-0.12277 0.18563,-0.22509 0.19293,-0.22656 0.17394,-0.20609 0.24555,-0.29086 0.20317,-0.22802 0.16516,-0.19147 0.18563,-0.21047 0.18855,-0.20756 0.17978,-0.20316 0.21486,-0.2324 0.32009,-0.35225 0.34933,-0.37126 0.23094,-0.24848 0.25433,-0.26309 0.29817,-0.31571 0.34348,-0.35079 0.3771,-0.38295 0.72205,-0.72497 1.06991,-1.04214 0.53642,-0.50572 0.76882,-0.7162 0.5598,-0.50865 0.41656,-0.37272 0.53642,-0.47356 0.3011,-0.26017 0.26017,-0.22071 0.25578,-0.21924 0.24994,-0.21048 0.30256,-0.25432 0.29233,-0.23386 0.39464,-0.31425 1.0246,-0.79513 0.68112,-0.50426 0.81705,-0.6022 0.87552,-0.6475 1.49086,-1.10645 1.37393,-1.0173 0.49403,-0.3654 0.72205,-0.53496 0.57734,-0.42534 5.32958,-3.61123 3.95221,-7.028 2.14974,-3.62148 2.53008,-3.75378 1.91823,-3.19153 1.65364,-3.00964 2.05052,-4.2168 1.62057,-3.73724 1.91823,-4.77903 1.09141,-3.05925 1.05833,-3.15846 0.56224,-1.9513 0.47956,-2.23242 0.3638,-2.18282 0.14883,-1.53789 0.16537,-2.497 0.11575,-2.71198 0.0661,-3.09232 0.0331,-10.682552 -0.13227,-6.961849 -0.16537,-2.761588 -0.28112,-2.166276 -0.41341,-2.282031 -0.51263,-2.000912 -0.7276,-2.315104 -1.02526,-2.877344 -0.89297,-2.480469 -1.57097,-3.886067 -1.6371,-3.671094 -2.10013,-4.183724 -2.94349,-5.04362 -3.04271,-4.729427 -3.22461,-4.316015 -2.36472,-2.926953 -3.3569,-3.770313 -3.78685,-3.836458 -3.5388,-3.22461 c -1.21923,-0.984639 -2.41621,-1.987827 -3.65794,-2.95372 -0.81261,-0.673894 -1.67732,-1.328629 -2.5763,-1.957608 -1.27805,-0.93386 -2.55793,-1.853713 -3.90261,-2.711979 l -4.10104,-2.579687 -4.5806,-2.513542 -3.30729,-1.653646 -3.27422,-1.455208 -3.29075,-1.35599 -4.41524,-1.6040363 -4.20026,-1.3063802 -5.53971,-1.5048177 -6.21771,-1.2733073 -4.81211,-0.7110677 c -1.5652,-0.1783917 -3.14085,-0.3498251 -4.72943,-0.5126302 l -4.11757,-0.2811198 c -1.73633,-0.05331 -3.47266,-0.089978 -5.20899,-0.1157552 -1.52764,0.013427 -3.04739,0.058431 -4.56406,0.1157552 -1.955101,0.092035 -3.944009,0.2143294 -5.920053,0.4134114 C 93.850603,3.642439 91.966345,3.9005506 90.107161,4.1837239 88.705914,4.3815809 87.296557,4.652422 85.890364,4.8947917 84.506158,5.1862801 83.114475,5.4702911 81.75625,5.7877604 80.493967,6.0850353 79.231684,6.4176945 77.969401,6.746875 76.308379,7.2044645 74.69084,7.7099215 73.041536,8.2351562 l -3.869531,1.3229167 -3.175,1.2567711 c -1.979797,0.83914 -3.888231,1.719908 -5.804297,2.596224 -1.492951,0.745408 -3.015802,1.522642 -4.4111,2.298567 -1.450434,0.78332 -2.832283,1.612028 -4.237467,2.43086 l -3.092318,1.967838 c -1.158813,0.798287 -2.322286,1.594406 -3.439584,2.397787 -1.083574,0.788238 -2.104736,1.576475 -3.141927,2.364713 l -2.926953,2.364714 -2.89388,2.563151 -3.505729,3.40651 c -1.148784,1.21092 -2.26773,2.415873 -3.389974,3.621485 l -2.94349,3.472656 -1.091406,1.405599 c -0.877965,1.148243 -1.728573,2.285544 -2.579687,3.423047 l -1.670183,2.38125 -1.653645,2.596224 -1.719792,2.89388 -1.488281,2.794661 -1.107943,2.298568 c -0.706883,1.506719 -1.331357,2.994706 -1.967839,4.48138 l -1.30638,3.208073 -1.7859373,5.027083 c -0.4709779,1.34733 -0.8754536,2.674515 -1.2567708,3.985287 -0.2945784,1.094468 -0.5264766,2.185248 -0.7276042,3.274219 l -0.3472656,2.315104 -0.1488282,1.918229 -0.1157552,2.745052 c -0.07584,2.114849 -0.083589,4.221952 -0.099219,6.316927 -0.015484,2.914878 -0.011166,5.809954 -0.016536,8.714718 l 0.082682,4.96093 c 0.043427,1.25354 0.1062346,2.49417 0.1653647,3.73724 l 0.2645833,2.77813 0.4134115,2.53008 c 0.1762954,0.6615 0.3384708,1.33834 0.5250326,1.99471 0.1970291,0.73115 0.4088079,1.41068 0.615983,2.10633 l 1.3725262,4.0845 1.355989,3.58841 c 0,0 1.366003,3.27556 1.372526,3.29077 l 0.03101,0.0723 c -0.0126,-0.0294 1.355658,3.14343 1.39113,3.13571 l 1.488281,3.175 2.083594,3.90261 2.033984,3.40651 c 0.755311,1.19337 1.521977,2.35723 2.282031,3.52226 l 0.859896,1.33946 1.620573,2.82773 1.025261,1.81901 1.604036,2.8112 0.926042,1.73633 0.534334,0.89297 4.856551,2.91041 3.356901,2.53008 2.43086,1.80247 2.61276,1.98438 1.951302,1.57096 1.918229,1.70326 2.199349,2.08359 1.835547,1.88516 2.364714,2.69544 1.53789,1.91823 1.693483,2.10013 2.672142,3.58841 2.778125,3.7207 2.215886,2.94349 2.38125,3.10886 2.05052,2.71198 2.546615,3.3569 3.307292,4.29948 1.686718,2.24896 -0.0016,0.62778 2.912027,5.7e-4 19.515858,-0.22799 16.963567,0.0296 z"
       id="path37"
       sodipodi:nodetypes="cccccccccccccccccccccccccccccccccccccccccccccccccccccccccccccccccccccccccccccccccccccccccccccccccccccccccccccccccccccccccccccccccccccccccccccccccccccccccccccccccccccccccccccccccccccccccccccccccccssccccccccccccccccccccccccccccccccccc" /><path
       style="fill:#7863ff;fill-opacity:1;fill-rule:evenodd;stroke:none;stroke-width:1.24798;stroke-opacity:1;paint-order:markers stroke fill"
       d="m 8.1359374,114.13463 c 0,0 0.3307292,-0.0496 0.3307292,-0.0496"
       id="path38"
       inkscape:path-effect="#path-effect39"
       inkscape:original-d="m 8.1359374,114.13463 0.3307292,-0.0496" /><path
       style="fill:#7863ff;fill-opacity:1;fill-rule:evenodd;stroke:none;stroke-width:1.24798;stroke-opacity:1;paint-order:markers stroke fill"
       d="m 27.715104,155.26081 c 0,0 0.562239,0.89296 0.562239,0.89296"
       id="path39"
       inkscape:path-effect="#path-effect40"
       inkscape:original-d="m 27.715104,155.26081 0.562239,0.89296" /></g></svg>
